<mxfile host="65bd71144e">
    <diagram id="qOgPNDa4eUex3jutcucp" name="Page-1">
        <mxGraphModel dx="1002" dy="556" grid="1" gridSize="10" guides="1" tooltips="1" connect="1" arrows="1" fold="1" page="1" pageScale="1" pageWidth="850" pageHeight="1100" math="0" shadow="0">
            <root>
                <mxCell id="0"/>
                <mxCell id="1" parent="0"/>
                <mxCell id="119" value="alt" style="shape=umlFrame;whiteSpace=wrap;html=1;fontSize=18;fontColor=#FF0000;" vertex="1" parent="1">
                    <mxGeometry x="740" y="1900" width="300" height="200" as="geometry"/>
                </mxCell>
                <mxCell id="2" value="■ スレッド作成画面" style="text;align=center;fontStyle=1;verticalAlign=middle;spacingLeft=3;spacingRight=3;strokeColor=none;rotatable=0;points=[[0,0.5],[1,0.5]];portConstraint=eastwest;fontSize=16;" parent="1" vertex="1">
                    <mxGeometry x="20" y="20" width="160" height="26" as="geometry"/>
                </mxCell>
                <mxCell id="3" value="PG" style="shape=umlLifeline;participant=umlActor;perimeter=lifelinePerimeter;whiteSpace=wrap;html=1;container=1;collapsible=0;recursiveResize=0;verticalAlign=top;spacingTop=36;outlineConnect=0;fontSize=16;" parent="1" vertex="1">
                    <mxGeometry x="40" y="100" width="20" height="540" as="geometry"/>
                </mxCell>
                <mxCell id="11" value="" style="html=1;points=[];perimeter=orthogonalPerimeter;fontSize=9;" parent="3" vertex="1">
                    <mxGeometry x="5" y="70" width="10" height="80" as="geometry"/>
                </mxCell>
                <mxCell id="4" value="&lt;font style=&quot;font-size: 12px;&quot;&gt;スレッド&lt;br&gt;作成画面&lt;/font&gt;" style="shape=umlLifeline;participant=umlBoundary;perimeter=lifelinePerimeter;whiteSpace=wrap;html=1;container=1;collapsible=0;recursiveResize=0;verticalAlign=top;spacingTop=36;outlineConnect=0;fontSize=16;" parent="1" vertex="1">
                    <mxGeometry x="250" y="100" width="50" height="540" as="geometry"/>
                </mxCell>
                <mxCell id="12" value="" style="html=1;points=[];perimeter=orthogonalPerimeter;fontSize=9;" parent="4" vertex="1">
                    <mxGeometry x="20" y="114" width="10" height="86" as="geometry"/>
                </mxCell>
                <mxCell id="18" style="edgeStyle=none;html=1;fontSize=12;" parent="4" source="12" target="12" edge="1">
                    <mxGeometry relative="1" as="geometry"/>
                </mxCell>
                <mxCell id="6" value="&lt;font style=&quot;font-size: 9px;&quot;&gt;スレッド作成&lt;br&gt;サービス&lt;/font&gt;" style="shape=umlLifeline;participant=umlControl;perimeter=lifelinePerimeter;whiteSpace=wrap;html=1;container=1;collapsible=0;recursiveResize=0;verticalAlign=top;spacingTop=36;outlineConnect=0;fontSize=12;" parent="1" vertex="1">
                    <mxGeometry x="750" y="100" width="40" height="540" as="geometry"/>
                </mxCell>
                <mxCell id="7" value="Slack通知&lt;br&gt;&lt;font style=&quot;font-size: 9px;&quot;&gt;サービス&lt;/font&gt;" style="shape=umlLifeline;participant=umlControl;perimeter=lifelinePerimeter;whiteSpace=wrap;html=1;container=1;collapsible=0;recursiveResize=0;verticalAlign=top;spacingTop=36;outlineConnect=0;fontSize=12;" parent="1" vertex="1">
                    <mxGeometry x="1030" y="100" width="40" height="540" as="geometry"/>
                </mxCell>
                <mxCell id="29" value="&lt;font color=&quot;#000000&quot;&gt;ref&lt;/font&gt;" style="shape=umlFrame;whiteSpace=wrap;html=1;fontSize=12;fontColor=#FF0000;width=50;height=34;fillColor=#FFFFFF;" parent="7" vertex="1">
                    <mxGeometry x="-10" y="310" width="165" height="70" as="geometry"/>
                </mxCell>
                <mxCell id="30" value="Slack通知&#10;サービス" style="text;align=center;fontStyle=0;verticalAlign=middle;spacingLeft=3;spacingRight=3;strokeColor=none;rotatable=0;points=[[0,0.5],[1,0.5]];portConstraint=eastwest;fontSize=12;fontColor=#FF0000;" parent="7" vertex="1">
                    <mxGeometry x="-7.5" y="342" width="160" height="26" as="geometry"/>
                </mxCell>
                <mxCell id="8" value="&lt;font style=&quot;font-size: 9px;&quot;&gt;スレッド作成&lt;br&gt;サービス&lt;/font&gt;" style="shape=umlLifeline;participant=umlControl;perimeter=lifelinePerimeter;whiteSpace=wrap;html=1;container=1;collapsible=0;recursiveResize=0;verticalAlign=top;spacingTop=36;outlineConnect=0;fontSize=12;" parent="1" vertex="1">
                    <mxGeometry x="500" y="100" width="40" height="540" as="geometry"/>
                </mxCell>
                <mxCell id="13" value="" style="html=1;points=[];perimeter=orthogonalPerimeter;fontSize=9;" parent="8" vertex="1">
                    <mxGeometry x="15" y="200" width="10" height="250" as="geometry"/>
                </mxCell>
                <mxCell id="9" value="&lt;font style=&quot;font-size: 12px;&quot;&gt;スレッド&lt;br&gt;&lt;/font&gt;" style="shape=umlLifeline;participant=umlBoundary;perimeter=lifelinePerimeter;whiteSpace=wrap;html=1;container=1;collapsible=0;recursiveResize=0;verticalAlign=top;spacingTop=36;outlineConnect=0;fontSize=16;" parent="1" vertex="1">
                    <mxGeometry x="1210" y="100" width="50" height="550" as="geometry"/>
                </mxCell>
                <mxCell id="14" style="edgeStyle=none;html=1;fontSize=9;" parent="1" source="11" target="4" edge="1">
                    <mxGeometry relative="1" as="geometry"/>
                </mxCell>
                <mxCell id="16" value="スレッド作成" style="text;align=center;fontStyle=0;verticalAlign=middle;spacingLeft=3;spacingRight=3;strokeColor=none;rotatable=0;points=[[0,0.5],[1,0.5]];portConstraint=eastwest;fontSize=12;" parent="1" vertex="1">
                    <mxGeometry x="80" y="180" width="160" height="26" as="geometry"/>
                </mxCell>
                <mxCell id="19" value="バリデーション" style="text;align=center;fontStyle=0;verticalAlign=middle;spacingLeft=3;spacingRight=3;strokeColor=none;rotatable=0;points=[[0,0.5],[1,0.5]];portConstraint=eastwest;fontSize=12;" parent="1" vertex="1">
                    <mxGeometry x="270" y="220" width="110" height="26" as="geometry"/>
                </mxCell>
                <mxCell id="20" style="edgeStyle=none;html=1;fontSize=9;" parent="1" target="13" edge="1">
                    <mxGeometry relative="1" as="geometry">
                        <mxPoint x="280.4999999999998" y="300" as="sourcePoint"/>
                        <mxPoint x="500" y="300" as="targetPoint"/>
                    </mxGeometry>
                </mxCell>
                <mxCell id="21" value="save_thread()" style="text;align=center;fontStyle=0;verticalAlign=middle;spacingLeft=3;spacingRight=3;strokeColor=none;rotatable=0;points=[[0,0.5],[1,0.5]];portConstraint=eastwest;fontSize=12;fontColor=#FF0000;" parent="1" vertex="1">
                    <mxGeometry x="320" y="270" width="160" height="26" as="geometry"/>
                </mxCell>
                <mxCell id="23" style="edgeStyle=none;html=1;fontSize=9;" parent="1" edge="1">
                    <mxGeometry relative="1" as="geometry">
                        <mxPoint x="529.9999999999998" y="320" as="sourcePoint"/>
                        <mxPoint x="740" y="320" as="targetPoint"/>
                    </mxGeometry>
                </mxCell>
                <mxCell id="24" value="create_and_save()" style="text;align=center;fontStyle=0;verticalAlign=middle;spacingLeft=3;spacingRight=3;strokeColor=none;rotatable=0;points=[[0,0.5],[1,0.5]];portConstraint=eastwest;fontSize=12;fontColor=#FF0000;" parent="1" vertex="1">
                    <mxGeometry x="560" y="284" width="160" height="26" as="geometry"/>
                </mxCell>
                <mxCell id="26" value="&lt;font color=&quot;#000000&quot;&gt;ref&lt;/font&gt;" style="shape=umlFrame;whiteSpace=wrap;html=1;fontSize=12;fontColor=#FF0000;width=50;height=34;fillColor=#FFFFFF;" parent="1" vertex="1">
                    <mxGeometry x="740" y="310" width="165" height="70" as="geometry"/>
                </mxCell>
                <mxCell id="27" value="スレッド作成&#10;サービス" style="text;align=center;fontStyle=0;verticalAlign=middle;spacingLeft=3;spacingRight=3;strokeColor=none;rotatable=0;points=[[0,0.5],[1,0.5]];portConstraint=eastwest;fontSize=12;fontColor=#FF0000;" parent="1" vertex="1">
                    <mxGeometry x="742.5" y="342" width="160" height="26" as="geometry"/>
                </mxCell>
                <mxCell id="28" style="edgeStyle=none;html=1;fontSize=9;entryX=0;entryY=0.429;entryDx=0;entryDy=0;entryPerimeter=0;" parent="1" target="29" edge="1">
                    <mxGeometry relative="1" as="geometry">
                        <mxPoint x="527.9999999999998" y="441.45" as="sourcePoint"/>
                        <mxPoint x="735.1949999999997" y="440.00000000000006" as="targetPoint"/>
                    </mxGeometry>
                </mxCell>
                <mxCell id="31" value="notify()" style="text;align=center;fontStyle=0;verticalAlign=middle;spacingLeft=3;spacingRight=3;strokeColor=none;rotatable=0;points=[[0,0.5],[1,0.5]];portConstraint=eastwest;fontSize=12;fontColor=#FF0000;" parent="1" vertex="1">
                    <mxGeometry x="560" y="410" width="160" height="26" as="geometry"/>
                </mxCell>
                <mxCell id="33" style="edgeStyle=none;html=1;fontSize=9;exitX=-0.025;exitY=0.765;exitDx=0;exitDy=0;exitPerimeter=0;dashed=1;" parent="1" edge="1">
                    <mxGeometry relative="1" as="geometry">
                        <mxPoint x="973.875" y="463.5500000000002" as="sourcePoint"/>
                        <mxPoint x="527.3235294117646" y="463.5500000000002" as="targetPoint"/>
                    </mxGeometry>
                </mxCell>
                <mxCell id="34" value="成功 or 失敗" style="text;align=center;fontStyle=0;verticalAlign=middle;spacingLeft=3;spacingRight=3;strokeColor=none;rotatable=0;points=[[0,0.5],[1,0.5]];portConstraint=eastwest;fontSize=12;fontColor=#FF0000;" parent="1" vertex="1">
                    <mxGeometry x="560" y="460" width="160" height="26" as="geometry"/>
                </mxCell>
                <mxCell id="35" value="&lt;font color=&quot;#000000&quot;&gt;ref&lt;/font&gt;" style="shape=umlFrame;whiteSpace=wrap;html=1;fontSize=12;fontColor=#FF0000;width=50;height=34;fillColor=#FFFFFF;" parent="1" vertex="1">
                    <mxGeometry x="1210" y="500" width="165" height="70" as="geometry"/>
                </mxCell>
                <mxCell id="36" value="スレッド画面" style="text;align=center;fontStyle=0;verticalAlign=middle;spacingLeft=3;spacingRight=3;strokeColor=none;rotatable=0;points=[[0,0.5],[1,0.5]];portConstraint=eastwest;fontSize=12;fontColor=#FF0000;" parent="1" vertex="1">
                    <mxGeometry x="1220" y="537" width="160" height="26" as="geometry"/>
                </mxCell>
                <mxCell id="37" style="edgeStyle=none;html=1;fontSize=9;entryX=0;entryY=0.49;entryDx=0;entryDy=0;entryPerimeter=0;" parent="1" target="35" edge="1">
                    <mxGeometry relative="1" as="geometry">
                        <mxPoint x="525.9999999999998" y="535.71" as="sourcePoint"/>
                        <mxPoint x="968" y="534.29" as="targetPoint"/>
                    </mxGeometry>
                </mxCell>
                <mxCell id="38" value="リダイレクト処理、完了通知" style="text;align=center;fontStyle=0;verticalAlign=middle;spacingLeft=3;spacingRight=3;strokeColor=none;rotatable=0;points=[[0,0.5],[1,0.5]];portConstraint=eastwest;fontSize=12;fontColor=#FF0000;" parent="1" vertex="1">
                    <mxGeometry x="560" y="511" width="160" height="26" as="geometry"/>
                </mxCell>
                <mxCell id="39" value="■ スレッド作成サービス" style="text;align=center;fontStyle=1;verticalAlign=middle;spacingLeft=3;spacingRight=3;strokeColor=none;rotatable=0;points=[[0,0.5],[1,0.5]];portConstraint=eastwest;fontSize=16;" vertex="1" parent="1">
                    <mxGeometry x="30" y="720" width="190" height="26" as="geometry"/>
                </mxCell>
                <mxCell id="40" value="&lt;font color=&quot;#ff0000&quot; style=&quot;font-size: 9px;&quot;&gt;スレッド作成&lt;br&gt;サービス&lt;/font&gt;" style="shape=umlLifeline;participant=umlControl;perimeter=lifelinePerimeter;whiteSpace=wrap;html=1;container=1;collapsible=0;recursiveResize=0;verticalAlign=top;spacingTop=36;outlineConnect=0;fontSize=12;" vertex="1" parent="1">
                    <mxGeometry x="30" y="770" width="40" height="770" as="geometry"/>
                </mxCell>
                <mxCell id="45" value="" style="html=1;points=[];perimeter=orthogonalPerimeter;fontSize=9;" vertex="1" parent="40">
                    <mxGeometry x="15" y="90" width="10" height="640" as="geometry"/>
                </mxCell>
                <mxCell id="74" value="" style="line;strokeWidth=1;fillColor=none;align=left;verticalAlign=middle;spacingTop=-1;spacingLeft=3;spacingRight=3;rotatable=0;labelPosition=right;points=[];portConstraint=eastwest;strokeColor=inherit;fontSize=9;fontColor=#FF0000;dashed=1;dashPattern=12 12;" vertex="1" parent="40">
                    <mxGeometry x="-10" y="570" width="1090" height="8" as="geometry"/>
                </mxCell>
                <mxCell id="75" value="[スレッド数 &gt; 5 :エラー]" style="text;align=center;fontStyle=0;verticalAlign=middle;spacingLeft=3;spacingRight=3;strokeColor=none;rotatable=0;points=[[0,0.5],[1,0.5]];portConstraint=eastwest;fontSize=12;fontColor=#FF0000;" vertex="1" parent="40">
                    <mxGeometry x="230" y="490" width="165" height="26" as="geometry"/>
                </mxCell>
                <mxCell id="76" value="[スレッド数 &lt;= 5 :正常]" style="text;align=center;fontStyle=0;verticalAlign=middle;spacingLeft=3;spacingRight=3;strokeColor=none;rotatable=0;points=[[0,0.5],[1,0.5]];portConstraint=eastwest;fontSize=12;fontColor=#FF0000;" vertex="1" parent="40">
                    <mxGeometry x="230" y="578" width="165" height="26" as="geometry"/>
                </mxCell>
                <mxCell id="77" style="edgeStyle=none;html=1;fontSize=9;exitX=-0.025;exitY=0.765;exitDx=0;exitDy=0;exitPerimeter=0;dashed=1;" edge="1" parent="40" target="42">
                    <mxGeometry relative="1" as="geometry">
                        <mxPoint x="1036.555" y="540.0000000000002" as="sourcePoint"/>
                        <mxPoint x="590.0035294117647" y="540.0000000000002" as="targetPoint"/>
                    </mxGeometry>
                </mxCell>
                <mxCell id="79" value="失敗通知" style="text;align=center;fontStyle=0;verticalAlign=middle;spacingLeft=3;spacingRight=3;strokeColor=none;rotatable=0;points=[[0,0.5],[1,0.5]];portConstraint=eastwest;fontSize=12;fontColor=#FF0000;" vertex="1" parent="40">
                    <mxGeometry x="230" y="516" width="165" height="26" as="geometry"/>
                </mxCell>
                <mxCell id="82" value="task" style="text;align=center;fontStyle=0;verticalAlign=middle;spacingLeft=3;spacingRight=3;strokeColor=none;rotatable=0;points=[[0,0.5],[1,0.5]];portConstraint=eastwest;fontSize=12;fontColor=#FF0000;" vertex="1" parent="40">
                    <mxGeometry x="230" y="604" width="165" height="26" as="geometry"/>
                </mxCell>
                <mxCell id="83" style="edgeStyle=none;html=1;fontSize=9;exitX=-0.025;exitY=0.765;exitDx=0;exitDy=0;exitPerimeter=0;dashed=1;entryX=0.94;entryY=0.764;entryDx=0;entryDy=0;entryPerimeter=0;" edge="1" parent="40">
                    <mxGeometry relative="1" as="geometry">
                        <mxPoint x="227.65500000000029" y="630.0000000000002" as="sourcePoint"/>
                        <mxPoint x="25.000000000000092" y="630.76" as="targetPoint"/>
                    </mxGeometry>
                </mxCell>
                <mxCell id="42" value="&lt;font size=&quot;1&quot; color=&quot;#ff0000&quot;&gt;タスクファクトリ&lt;/font&gt;" style="shape=umlLifeline;participant=umlControl;perimeter=lifelinePerimeter;whiteSpace=wrap;html=1;container=1;collapsible=0;recursiveResize=0;verticalAlign=top;spacingTop=36;outlineConnect=0;fontSize=12;" vertex="1" parent="1">
                    <mxGeometry x="240" y="770" width="40" height="760" as="geometry"/>
                </mxCell>
                <mxCell id="46" value="" style="html=1;points=[];perimeter=orthogonalPerimeter;fontSize=9;" vertex="1" parent="42">
                    <mxGeometry x="15" y="140" width="10" height="540" as="geometry"/>
                </mxCell>
                <mxCell id="73" value="&lt;font style=&quot;font-size: 18px;&quot;&gt;alt&lt;/font&gt;" style="shape=umlFrame;whiteSpace=wrap;html=1;fontSize=9;fontColor=#FF0000;" vertex="1" parent="42">
                    <mxGeometry x="-220" y="484" width="1090" height="160" as="geometry"/>
                </mxCell>
                <mxCell id="43" style="edgeStyle=none;html=1;fontSize=9;" edge="1" parent="1">
                    <mxGeometry relative="1" as="geometry">
                        <mxPoint x="49.99999999999977" y="920" as="sourcePoint"/>
                        <mxPoint x="260" y="920" as="targetPoint"/>
                    </mxGeometry>
                </mxCell>
                <mxCell id="44" value="create()" style="text;align=center;fontStyle=0;verticalAlign=middle;spacingLeft=3;spacingRight=3;strokeColor=none;rotatable=0;points=[[0,0.5],[1,0.5]];portConstraint=eastwest;fontSize=12;fontColor=#FF0000;" vertex="1" parent="1">
                    <mxGeometry x="80" y="890" width="160" height="26" as="geometry"/>
                </mxCell>
                <mxCell id="47" value="&lt;font size=&quot;1&quot; color=&quot;#ff0000&quot;&gt;タスクDS&lt;/font&gt;" style="shape=umlLifeline;participant=umlControl;perimeter=lifelinePerimeter;whiteSpace=wrap;html=1;container=1;collapsible=0;recursiveResize=0;verticalAlign=top;spacingTop=36;outlineConnect=0;fontSize=12;" vertex="1" parent="1">
                    <mxGeometry x="425" y="780" width="44" height="750" as="geometry"/>
                </mxCell>
                <mxCell id="52" value="" style="html=1;points=[];perimeter=orthogonalPerimeter;fontSize=9;" vertex="1" parent="47">
                    <mxGeometry x="15" y="170" width="10" height="40" as="geometry"/>
                </mxCell>
                <mxCell id="72" value="task.add_thread(thread_id)" style="text;align=center;fontStyle=0;verticalAlign=middle;spacingLeft=3;spacingRight=3;strokeColor=none;rotatable=0;points=[[0,0.5],[1,0.5]];portConstraint=eastwest;fontSize=12;fontColor=#FF0000;" vertex="1" parent="47">
                    <mxGeometry x="-180" y="434" width="224" height="26" as="geometry"/>
                </mxCell>
                <mxCell id="49" value="&lt;font size=&quot;1&quot; color=&quot;#ff0000&quot;&gt;社員&lt;br&gt;DS&lt;/font&gt;" style="shape=umlLifeline;participant=umlControl;perimeter=lifelinePerimeter;whiteSpace=wrap;html=1;container=1;collapsible=0;recursiveResize=0;verticalAlign=top;spacingTop=36;outlineConnect=0;fontSize=12;" vertex="1" parent="1">
                    <mxGeometry x="620" y="780" width="40" height="750" as="geometry"/>
                </mxCell>
                <mxCell id="53" value="" style="html=1;points=[];perimeter=orthogonalPerimeter;fontSize=9;" vertex="1" parent="49">
                    <mxGeometry x="15" y="220" width="10" height="40" as="geometry"/>
                </mxCell>
                <mxCell id="81" style="edgeStyle=none;html=1;fontSize=9;exitX=-0.025;exitY=0.765;exitDx=0;exitDy=0;exitPerimeter=0;dashed=1;" edge="1" parent="49">
                    <mxGeometry relative="1" as="geometry">
                        <mxPoint x="452.0550000000003" y="620.0000000000002" as="sourcePoint"/>
                        <mxPoint x="-355" y="620.0000000000002" as="targetPoint"/>
                    </mxGeometry>
                </mxCell>
                <mxCell id="50" style="edgeStyle=none;html=1;fontSize=9;" edge="1" parent="1">
                    <mxGeometry relative="1" as="geometry">
                        <mxPoint x="265.9999999999998" y="948" as="sourcePoint"/>
                        <mxPoint x="450" y="948" as="targetPoint"/>
                    </mxGeometry>
                </mxCell>
                <mxCell id="51" value="is_exist(task_id)" style="text;align=center;fontStyle=0;verticalAlign=middle;spacingLeft=3;spacingRight=3;strokeColor=none;rotatable=0;points=[[0,0.5],[1,0.5]];portConstraint=eastwest;fontSize=12;fontColor=#FF0000;" vertex="1" parent="1">
                    <mxGeometry x="296" y="918" width="114" height="26" as="geometry"/>
                </mxCell>
                <mxCell id="54" style="edgeStyle=none;html=1;fontSize=9;" edge="1" parent="1" target="49">
                    <mxGeometry relative="1" as="geometry">
                        <mxPoint x="264.9999999999998" y="1002" as="sourcePoint"/>
                        <mxPoint x="449" y="1002" as="targetPoint"/>
                    </mxGeometry>
                </mxCell>
                <mxCell id="55" value="is_exist(staff_id)" style="text;align=center;fontStyle=0;verticalAlign=middle;spacingLeft=3;spacingRight=3;strokeColor=none;rotatable=0;points=[[0,0.5],[1,0.5]];portConstraint=eastwest;fontSize=12;fontColor=#FF0000;" vertex="1" parent="1">
                    <mxGeometry x="300" y="970" width="114" height="26" as="geometry"/>
                </mxCell>
                <mxCell id="57" value="&lt;font style=&quot;font-size: 9px;&quot;&gt;スレッド&lt;/font&gt;" style="shape=umlLifeline;participant=umlEntity;perimeter=lifelinePerimeter;whiteSpace=wrap;html=1;container=1;collapsible=0;recursiveResize=0;verticalAlign=top;spacingTop=36;outlineConnect=0;fontColor=#FF0000;" vertex="1" parent="1">
                    <mxGeometry x="770" y="1020" width="40" height="510" as="geometry"/>
                </mxCell>
                <mxCell id="60" value="" style="html=1;points=[];perimeter=orthogonalPerimeter;fontSize=9;" vertex="1" parent="57">
                    <mxGeometry x="15" y="80" width="10" height="40" as="geometry"/>
                </mxCell>
                <mxCell id="58" style="edgeStyle=none;html=1;fontSize=9;" edge="1" parent="1" target="57">
                    <mxGeometry relative="1" as="geometry">
                        <mxPoint x="257.7499999999998" y="1100" as="sourcePoint"/>
                        <mxPoint x="632.25" y="1100" as="targetPoint"/>
                    </mxGeometry>
                </mxCell>
                <mxCell id="59" value="&lt;&lt;Create&gt;&gt;&#10;thread = new Thread()" style="text;align=center;fontStyle=0;verticalAlign=middle;spacingLeft=3;spacingRight=3;strokeColor=none;rotatable=0;points=[[0,0.5],[1,0.5]];portConstraint=eastwest;fontSize=12;fontColor=#FF0000;" vertex="1" parent="1">
                    <mxGeometry x="300" y="1070" width="114" height="26" as="geometry"/>
                </mxCell>
                <mxCell id="61" value="&lt;font size=&quot;1&quot; color=&quot;#ff0000&quot;&gt;タスクQS&lt;/font&gt;" style="shape=umlLifeline;participant=umlControl;perimeter=lifelinePerimeter;whiteSpace=wrap;html=1;container=1;collapsible=0;recursiveResize=0;verticalAlign=top;spacingTop=36;outlineConnect=0;fontSize=12;" vertex="1" parent="1">
                    <mxGeometry x="862.5" y="780" width="40" height="750" as="geometry"/>
                </mxCell>
                <mxCell id="64" value="" style="html=1;points=[];perimeter=orthogonalPerimeter;fontSize=9;" vertex="1" parent="61">
                    <mxGeometry x="15" y="380" width="10" height="40" as="geometry"/>
                </mxCell>
                <mxCell id="63" style="edgeStyle=none;html=1;fontSize=9;" edge="1" parent="1" target="61">
                    <mxGeometry relative="1" as="geometry">
                        <mxPoint x="265.9999999999998" y="1162" as="sourcePoint"/>
                        <mxPoint x="797.75" y="1162" as="targetPoint"/>
                    </mxGeometry>
                </mxCell>
                <mxCell id="65" value="find_by_id(task_id)" style="text;align=center;fontStyle=0;verticalAlign=middle;spacingLeft=3;spacingRight=3;strokeColor=none;rotatable=0;points=[[0,0.5],[1,0.5]];portConstraint=eastwest;fontSize=12;fontColor=#FF0000;" vertex="1" parent="1">
                    <mxGeometry x="300" y="1130" width="114" height="26" as="geometry"/>
                </mxCell>
                <mxCell id="66" value="&lt;font style=&quot;font-size: 9px;&quot;&gt;タスク&lt;/font&gt;" style="shape=umlLifeline;participant=umlEntity;perimeter=lifelinePerimeter;whiteSpace=wrap;html=1;container=1;collapsible=0;recursiveResize=0;verticalAlign=top;spacingTop=36;outlineConnect=0;fontColor=#FF0000;" vertex="1" parent="1">
                    <mxGeometry x="1050" y="1080" width="40" height="510" as="geometry"/>
                </mxCell>
                <mxCell id="67" value="" style="html=1;points=[];perimeter=orthogonalPerimeter;fontSize=9;" vertex="1" parent="66">
                    <mxGeometry x="15" y="100" width="10" height="40" as="geometry"/>
                </mxCell>
                <mxCell id="71" value="" style="html=1;points=[];perimeter=orthogonalPerimeter;fontSize=9;" vertex="1" parent="66">
                    <mxGeometry x="15" y="160" width="10" height="180" as="geometry"/>
                </mxCell>
                <mxCell id="68" value="&lt;&lt;Create&gt;&gt;&#10;task = new Task()" style="text;align=center;fontStyle=0;verticalAlign=middle;spacingLeft=3;spacingRight=3;strokeColor=none;rotatable=0;points=[[0,0.5],[1,0.5]];portConstraint=eastwest;fontSize=12;fontColor=#FF0000;" vertex="1" parent="1">
                    <mxGeometry x="920" y="1142" width="114" height="26" as="geometry"/>
                </mxCell>
                <mxCell id="69" style="edgeStyle=none;html=1;fontSize=9;" edge="1" parent="1">
                    <mxGeometry relative="1" as="geometry">
                        <mxPoint x="888" y="1180" as="sourcePoint"/>
                        <mxPoint x="1067" y="1180" as="targetPoint"/>
                    </mxGeometry>
                </mxCell>
                <mxCell id="70" style="edgeStyle=none;html=1;fontSize=9;" edge="1" parent="1" target="66">
                    <mxGeometry relative="1" as="geometry">
                        <mxPoint x="265.9999999999998" y="1240" as="sourcePoint"/>
                        <mxPoint x="882" y="1240" as="targetPoint"/>
                    </mxGeometry>
                </mxCell>
                <mxCell id="80" style="edgeStyle=none;html=1;fontSize=9;exitX=-0.34;exitY=0.724;exitDx=0;exitDy=0;exitPerimeter=0;dashed=1;" edge="1" parent="1">
                    <mxGeometry relative="1" as="geometry">
                        <mxPoint x="251.5999999999999" y="1310.96" as="sourcePoint"/>
                        <mxPoint x="55" y="1310.96" as="targetPoint"/>
                    </mxGeometry>
                </mxCell>
                <mxCell id="84" value="&lt;font size=&quot;1&quot; color=&quot;#ff0000&quot;&gt;タスクレポジトリ&lt;/font&gt;" style="shape=umlLifeline;participant=umlControl;perimeter=lifelinePerimeter;whiteSpace=wrap;html=1;container=1;collapsible=0;recursiveResize=0;verticalAlign=top;spacingTop=36;outlineConnect=0;fontSize=12;" vertex="1" parent="1">
                    <mxGeometry x="1170" y="780" width="40" height="750" as="geometry"/>
                </mxCell>
                <mxCell id="85" value="" style="html=1;points=[];perimeter=orthogonalPerimeter;fontSize=9;" vertex="1" parent="84">
                    <mxGeometry x="15" y="670" width="10" height="40" as="geometry"/>
                </mxCell>
                <mxCell id="86" style="edgeStyle=none;html=1;fontSize=9;" edge="1" parent="1" target="84">
                    <mxGeometry relative="1" as="geometry">
                        <mxPoint x="54.99999999999977" y="1480" as="sourcePoint"/>
                        <mxPoint x="671" y="1480" as="targetPoint"/>
                    </mxGeometry>
                </mxCell>
                <mxCell id="87" value="save(task)" style="text;align=center;fontStyle=0;verticalAlign=middle;spacingLeft=3;spacingRight=3;strokeColor=none;rotatable=0;points=[[0,0.5],[1,0.5]];portConstraint=eastwest;fontSize=12;fontColor=#FF0000;" vertex="1" parent="1">
                    <mxGeometry x="46" y="1454" width="224" height="26" as="geometry"/>
                </mxCell>
                <mxCell id="88" value="■ slack通知サービス" style="text;align=center;fontStyle=1;verticalAlign=middle;spacingLeft=3;spacingRight=3;strokeColor=none;rotatable=0;points=[[0,0.5],[1,0.5]];portConstraint=eastwest;fontSize=16;" vertex="1" parent="1">
                    <mxGeometry x="20" y="1590" width="190" height="26" as="geometry"/>
                </mxCell>
                <mxCell id="89" value="&lt;font size=&quot;1&quot; color=&quot;#ff0000&quot;&gt;slack&lt;br&gt;通知&lt;br&gt;サービス&lt;/font&gt;" style="shape=umlLifeline;participant=umlControl;perimeter=lifelinePerimeter;whiteSpace=wrap;html=1;container=1;collapsible=0;recursiveResize=0;verticalAlign=top;spacingTop=36;outlineConnect=0;fontSize=12;" vertex="1" parent="1">
                    <mxGeometry x="30" y="1650" width="40" height="630" as="geometry"/>
                </mxCell>
                <mxCell id="99" value="" style="html=1;points=[];perimeter=orthogonalPerimeter;fontSize=9;" vertex="1" parent="89">
                    <mxGeometry x="15" y="110" width="10" height="480" as="geometry"/>
                </mxCell>
                <mxCell id="98" value="&lt;font size=&quot;1&quot; color=&quot;#ff0000&quot;&gt;通知先QS&lt;/font&gt;" style="shape=umlLifeline;participant=umlControl;perimeter=lifelinePerimeter;whiteSpace=wrap;html=1;container=1;collapsible=0;recursiveResize=0;verticalAlign=top;spacingTop=36;outlineConnect=0;fontSize=12;" vertex="1" parent="1">
                    <mxGeometry x="200" y="1650" width="40" height="630" as="geometry"/>
                </mxCell>
                <mxCell id="101" value="" style="html=1;points=[];perimeter=orthogonalPerimeter;fontSize=9;" vertex="1" parent="98">
                    <mxGeometry x="15" y="130" width="10" height="90" as="geometry"/>
                </mxCell>
                <mxCell id="102" style="edgeStyle=none;html=1;fontSize=9;entryX=0.06;entryY=0.213;entryDx=0;entryDy=0;entryPerimeter=0;" edge="1" parent="1" target="101">
                    <mxGeometry relative="1" as="geometry">
                        <mxPoint x="55.99999999999977" y="1800" as="sourcePoint"/>
                        <mxPoint x="210" y="1800" as="targetPoint"/>
                    </mxGeometry>
                </mxCell>
                <mxCell id="103" value="get_notify_info(staff_id)" style="text;align=center;fontStyle=0;verticalAlign=middle;spacingLeft=3;spacingRight=3;strokeColor=none;rotatable=0;points=[[0,0.5],[1,0.5]];portConstraint=eastwest;fontSize=12;fontColor=#FF0000;" vertex="1" parent="1">
                    <mxGeometry x="20" y="1770" width="224" height="26" as="geometry"/>
                </mxCell>
                <mxCell id="104" value="&lt;font size=&quot;1&quot;&gt;通知先&lt;/font&gt;" style="shape=umlLifeline;participant=umlEntity;perimeter=lifelinePerimeter;whiteSpace=wrap;html=1;container=1;collapsible=0;recursiveResize=0;verticalAlign=top;spacingTop=36;outlineConnect=0;fontColor=#FF0000;" vertex="1" parent="1">
                    <mxGeometry x="400" y="1710" width="40" height="570" as="geometry"/>
                </mxCell>
                <mxCell id="106" value="" style="html=1;points=[];perimeter=orthogonalPerimeter;fontSize=9;" vertex="1" parent="104">
                    <mxGeometry x="15" y="106" width="10" height="30" as="geometry"/>
                </mxCell>
                <mxCell id="107" value="&lt;&lt;Create&gt;&gt;&#10;notify_info = new NotifyInfo()" style="text;align=center;fontStyle=0;verticalAlign=middle;spacingLeft=3;spacingRight=3;strokeColor=none;rotatable=0;points=[[0,0.5],[1,0.5]];portConstraint=eastwest;fontSize=12;fontColor=#FF0000;" vertex="1" parent="1">
                    <mxGeometry x="210" y="1790" width="224" height="26" as="geometry"/>
                </mxCell>
                <mxCell id="108" style="edgeStyle=none;html=1;fontSize=9;" edge="1" parent="1" target="104">
                    <mxGeometry relative="1" as="geometry">
                        <mxPoint x="225.39999999999978" y="1820.83" as="sourcePoint"/>
                        <mxPoint x="330" y="1820" as="targetPoint"/>
                    </mxGeometry>
                </mxCell>
                <mxCell id="109" style="edgeStyle=none;html=1;fontSize=9;dashed=1;" edge="1" parent="1">
                    <mxGeometry relative="1" as="geometry">
                        <mxPoint x="210" y="1860" as="sourcePoint"/>
                        <mxPoint x="55" y="1860" as="targetPoint"/>
                    </mxGeometry>
                </mxCell>
                <mxCell id="110" value="&lt;font size=&quot;1&quot; color=&quot;#ff0000&quot;&gt;Slack&lt;br&gt;API&lt;br&gt;クライアント&lt;br&gt;&lt;/font&gt;" style="shape=umlLifeline;participant=umlControl;perimeter=lifelinePerimeter;whiteSpace=wrap;html=1;container=1;collapsible=0;recursiveResize=0;verticalAlign=top;spacingTop=36;outlineConnect=0;fontSize=12;" vertex="1" parent="1">
                    <mxGeometry x="580" y="1640" width="40" height="640" as="geometry"/>
                </mxCell>
                <mxCell id="111" value="" style="html=1;points=[];perimeter=orthogonalPerimeter;fontSize=9;" vertex="1" parent="110">
                    <mxGeometry x="15" y="250" width="10" height="320" as="geometry"/>
                </mxCell>
                <mxCell id="112" style="edgeStyle=none;html=1;fontSize=9;" edge="1" parent="1" target="110">
                    <mxGeometry relative="1" as="geometry">
                        <mxPoint x="55.899999999999864" y="1930" as="sourcePoint"/>
                        <mxPoint x="250" y="1930" as="targetPoint"/>
                    </mxGeometry>
                </mxCell>
                <mxCell id="113" value="send(notify_info.token, thread_summary)" style="text;align=center;fontStyle=0;verticalAlign=middle;spacingLeft=3;spacingRight=3;strokeColor=none;rotatable=0;points=[[0,0.5],[1,0.5]];portConstraint=eastwest;fontSize=12;fontColor=#FF0000;" vertex="1" parent="1">
                    <mxGeometry x="56" y="1900" width="244" height="26" as="geometry"/>
                </mxCell>
                <mxCell id="114" value="&lt;font style=&quot;font-size: 12px;&quot;&gt;&lt;font color=&quot;#ff0000&quot;&gt;Slack&lt;/font&gt;&lt;br&gt;&lt;/font&gt;" style="shape=umlLifeline;participant=umlBoundary;perimeter=lifelinePerimeter;whiteSpace=wrap;html=1;container=1;collapsible=0;recursiveResize=0;verticalAlign=top;spacingTop=36;outlineConnect=0;fontSize=16;" vertex="1" parent="1">
                    <mxGeometry x="760" y="1640" width="50" height="640" as="geometry"/>
                </mxCell>
                <mxCell id="120" value="" style="html=1;points=[];perimeter=orthogonalPerimeter;fontSize=9;" vertex="1" parent="114">
                    <mxGeometry x="20" y="310" width="10" height="210" as="geometry"/>
                </mxCell>
                <mxCell id="115" value="SE" style="shape=umlLifeline;participant=umlActor;perimeter=lifelinePerimeter;whiteSpace=wrap;html=1;container=1;collapsible=0;recursiveResize=0;verticalAlign=top;spacingTop=36;outlineConnect=0;fontSize=16;" vertex="1" parent="1">
                    <mxGeometry x="950" y="1640" width="20" height="640" as="geometry"/>
                </mxCell>
                <mxCell id="117" style="edgeStyle=none;html=1;fontSize=9;entryX=-0.009;entryY=0.3;entryDx=0;entryDy=0;entryPerimeter=0;" edge="1" parent="1" target="119">
                    <mxGeometry relative="1" as="geometry">
                        <mxPoint x="605.9999999999998" y="1960" as="sourcePoint"/>
                        <mxPoint x="765.5999999999999" y="1959.17" as="targetPoint"/>
                    </mxGeometry>
                </mxCell>
                <mxCell id="118" value="通知を送信" style="text;align=center;fontStyle=0;verticalAlign=middle;spacingLeft=3;spacingRight=3;strokeColor=none;rotatable=0;points=[[0,0.5],[1,0.5]];portConstraint=eastwest;fontSize=12;fontColor=#FF0000;" vertex="1" parent="1">
                    <mxGeometry x="610" y="1930" width="120" height="26" as="geometry"/>
                </mxCell>
                <mxCell id="122" style="edgeStyle=none;html=1;fontSize=9;dashed=1;" edge="1" parent="1" target="89">
                    <mxGeometry relative="1" as="geometry">
                        <mxPoint x="590" y="2200" as="sourcePoint"/>
                        <mxPoint x="400.0000000000001" y="2199" as="targetPoint"/>
                    </mxGeometry>
                </mxCell>
                <mxCell id="123" style="edgeStyle=none;html=1;fontSize=9;dashed=1;" edge="1" parent="1">
                    <mxGeometry relative="1" as="geometry">
                        <mxPoint x="780" y="2134" as="sourcePoint"/>
                        <mxPoint x="605" y="2134" as="targetPoint"/>
                    </mxGeometry>
                </mxCell>
                <mxCell id="124" value="APIレスポンス" style="text;align=center;fontStyle=0;verticalAlign=middle;spacingLeft=3;spacingRight=3;strokeColor=none;rotatable=0;points=[[0,0.5],[1,0.5]];portConstraint=eastwest;fontSize=12;fontColor=#FF0000;" vertex="1" parent="1">
                    <mxGeometry x="640" y="2110" width="120" height="26" as="geometry"/>
                </mxCell>
                <mxCell id="126" style="edgeStyle=none;html=1;fontSize=12;" edge="1" parent="1">
                    <mxGeometry relative="1" as="geometry">
                        <mxPoint x="606" y="2152" as="sourcePoint"/>
                        <mxPoint x="606" y="2192" as="targetPoint"/>
                        <Array as="points">
                            <mxPoint x="636" y="2152"/>
                            <mxPoint x="636" y="2172"/>
                            <mxPoint x="636" y="2192"/>
                        </Array>
                    </mxGeometry>
                </mxCell>
                <mxCell id="127" value="エラーチェック" style="text;align=center;fontStyle=0;verticalAlign=middle;spacingLeft=3;spacingRight=3;strokeColor=none;rotatable=0;points=[[0,0.5],[1,0.5]];portConstraint=eastwest;fontSize=12;fontColor=#FF0000;" vertex="1" parent="1">
                    <mxGeometry x="630" y="2160" width="120" height="26" as="geometry"/>
                </mxCell>
                <mxCell id="128" value="実行結果（成功 or 失敗）" style="text;align=center;fontStyle=0;verticalAlign=middle;spacingLeft=3;spacingRight=3;strokeColor=none;rotatable=0;points=[[0,0.5],[1,0.5]];portConstraint=eastwest;fontSize=12;fontColor=#FF0000;" vertex="1" parent="1">
                    <mxGeometry x="250" y="2174" width="120" height="26" as="geometry"/>
                </mxCell>
                <mxCell id="129" value="[成功]" style="text;align=center;fontStyle=0;verticalAlign=middle;spacingLeft=3;spacingRight=3;strokeColor=none;rotatable=0;points=[[0,0.5],[1,0.5]];portConstraint=eastwest;fontSize=12;fontColor=#FF0000;" vertex="1" parent="1">
                    <mxGeometry x="790" y="1940" width="60" height="26" as="geometry"/>
                </mxCell>
                <mxCell id="130" value="[失敗]" style="text;align=center;fontStyle=0;verticalAlign=middle;spacingLeft=3;spacingRight=3;strokeColor=none;rotatable=0;points=[[0,0.5],[1,0.5]];portConstraint=eastwest;fontSize=12;fontColor=#FF0000;" vertex="1" parent="1">
                    <mxGeometry x="790" y="2020" width="60" height="26" as="geometry"/>
                </mxCell>
                <mxCell id="131" value="" style="line;strokeWidth=1;fillColor=none;align=left;verticalAlign=middle;spacingTop=-1;spacingLeft=3;spacingRight=3;rotatable=0;labelPosition=right;points=[];portConstraint=eastwest;strokeColor=inherit;fontSize=18;fontColor=#FF0000;dashed=1;" vertex="1" parent="1">
                    <mxGeometry x="740" y="2000" width="300" height="8" as="geometry"/>
                </mxCell>
                <mxCell id="132" style="edgeStyle=none;html=1;fontSize=9;" edge="1" parent="1" target="115">
                    <mxGeometry relative="1" as="geometry">
                        <mxPoint x="788.6999999999998" y="1986" as="sourcePoint"/>
                        <mxPoint x="920" y="1990" as="targetPoint"/>
                    </mxGeometry>
                </mxCell>
                <mxCell id="133" value="通知が届く" style="text;align=center;fontStyle=0;verticalAlign=middle;spacingLeft=3;spacingRight=3;strokeColor=none;rotatable=0;points=[[0,0.5],[1,0.5]];portConstraint=eastwest;fontSize=12;fontColor=#FF0000;" vertex="1" parent="1">
                    <mxGeometry x="810" y="1966" width="120" height="26" as="geometry"/>
                </mxCell>
            </root>
        </mxGraphModel>
    </diagram>
</mxfile>